<?xml version="1.0" standalone="no"?>
<svg xmlns="http://www.w3.org/2000/svg" xmlns:xlink="http://www.w3.org/1999/xlink" width="811pt" height="175pt" viewBox="0.00 0.00 810.86 175.00">
<g id="graph0" class="graph" transform="translate(4,171) scale(1)" data-name="G">

<polygon fill="white" stroke="none" points="-4,4 -4,-171 806.86,-171 806.86,4 -4,4" style=""/>
<g id="clust1" class="cluster" data-name="cluster_App">

<path fill="none" stroke="#8ccaf7" d="M264.82,-8C264.82,-8 782.86,-8 782.86,-8 788.86,-8 794.86,-14 794.86,-20 794.86,-20 794.86,-147 794.86,-147 794.86,-153 788.86,-159 782.86,-159 782.86,-159 264.82,-159 264.82,-159 258.82,-159 252.82,-153 252.82,-147 252.82,-147 252.82,-20 252.82,-20 252.82,-14 258.82,-8 264.82,-8" style=""/>
<text text-anchor="middle" x="523.84" y="-142.4" font-family="Times,serif" font-size="14.00" style="">App</text>
</g>
<!-- Core -->
<g id="node1" class="node" pointer-events="visible" data-name="Core">

<polygon fill="#a8e6cf" stroke="black" points="786.61,-62 691.6,-62 691.6,-26 786.61,-26 786.61,-62" style=""/>
<text text-anchor="middle" x="739.1" y="-47" font-family="Arial" font-size="10.00" style="">Entidade Cidadao</text>
<text text-anchor="middle" x="739.1" y="-35" font-family="Arial" font-size="10.00" style="">(Domain)</text>
</g>
<!-- Services -->
<g id="node2" class="node" pointer-events="visible" data-name="Services">

<polygon fill="#a8e6cf" stroke="black" points="655.47,-72 556.99,-72 556.99,-36 655.47,-36 655.47,-72" style=""/>
<text text-anchor="middle" x="606.23" y="-51" font-family="Arial" font-size="10.00" style="">Services (Domain)</text>
</g>
<!-- UseCases -->
<g id="node3" class="node" pointer-events="visible" data-name="UseCases">

<polygon fill="#fffacd" stroke="black" points="489.79,-72 387.49,-72 387.49,-28 489.79,-28 489.79,-72" style=""/>
<text text-anchor="middle" x="438.64" y="-59" font-family="Arial" font-size="10.00" style="">UseCases</text>
<text text-anchor="middle" x="438.64" y="-47" font-family="Arial" font-size="10.00" style="">(Cadastro e Busca)</text>
<text text-anchor="middle" x="438.64" y="-35" font-family="Arial" font-size="10.00" style="">(Domain)</text>
</g>
<!-- UseCases&#45;&gt;Core -->
<g id="edge5" class="edge" data-name="UseCases-&gt;Core">

<path fill="none" stroke="black" d="M490.21,-37.88C510.82,-33.52 534.98,-29.15 557.11,-27 600.57,-22.79 611.91,-22.58 655.35,-27 663.48,-27.83 671.98,-29.1 680.32,-30.58" style=""/>
<polygon fill="black" stroke="black" points="679.57,-34 690.04,-32.43 680.87,-27.12 679.57,-34" style=""/>
</g>
<!-- UseCases&#45;&gt;Services -->
<g id="edge6" class="edge" data-name="UseCases-&gt;Services">

<path fill="none" stroke="black" d="M490.22,-51.22C507.62,-51.64 527.28,-52.12 545.35,-52.55" style=""/>
<polygon fill="black" stroke="black" points="545.06,-56.05 555.15,-52.79 545.23,-49.05 545.06,-56.05" style=""/>
</g>
<!-- Repository -->
<g id="node5" class="node" pointer-events="visible" data-name="Repository">

<polygon fill="#d1c4e9" stroke="black" points="646.8,-126 565.66,-126 565.66,-90 646.8,-90 646.8,-126" style=""/>
<text text-anchor="middle" x="606.23" y="-111" font-family="Arial" font-size="10.00" style="">Repository</text>
<text text-anchor="middle" x="606.23" y="-99" font-family="Arial" font-size="10.00" style="">(Infrastructure)</text>
</g>
<!-- UseCases&#45;&gt;Repository -->
<g id="edge7" class="edge" data-name="UseCases-&gt;Repository">

<path fill="none" stroke="black" d="M490.22,-67.72C510.62,-74.86 534.11,-83.09 554.52,-90.24" style=""/>
<polygon fill="black" stroke="black" points="553.16,-93.47 563.76,-93.47 555.48,-86.87 553.16,-93.47" style=""/>
</g>
<!-- Controller -->
<g id="node4" class="node" pointer-events="visible" data-name="Controller">

<polygon fill="#ffcccb" stroke="black" points="320.34,-97 260.64,-97 260.64,-61 320.34,-61 320.34,-97" style=""/>
<text text-anchor="middle" x="290.49" y="-82" font-family="Arial" font-size="10.00" style="">Controller</text>
<text text-anchor="middle" x="290.49" y="-70" font-family="Arial" font-size="10.00" style="">(Http)</text>
</g>
<!-- Controller&#45;&gt;UseCases -->
<g id="edge3" class="edge" data-name="Controller-&gt;UseCases">

<path fill="none" stroke="black" d="M320.72,-73.2C336.59,-70.05 356.85,-66.03 376.03,-62.23" style=""/>
<polygon fill="black" stroke="black" points="376.54,-65.69 385.67,-60.31 375.18,-58.83 376.54,-65.69" style=""/>
</g>
<!-- View -->
<g id="node7" class="node" pointer-events="visible" data-name="View">

<polygon fill="#ffd580" stroke="black" points="521.08,-126 356.2,-126 356.2,-90 521.08,-90 521.08,-126" style=""/>
<text text-anchor="middle" x="438.64" y="-111" font-family="Arial" font-size="10.00" style="">Views</text>
<text text-anchor="middle" x="438.64" y="-99" font-family="Arial" font-size="10.00" style="">(Formulário, Resultado, Sucesso)</text>
</g>
<!-- Controller&#45;&gt;View -->
<g id="edge4" class="edge" data-name="Controller-&gt;View">

<path fill="none" stroke="black" d="M320.72,-84.8C327.98,-86.24 336.16,-87.86 344.73,-89.56" style=""/>
<polygon fill="black" stroke="black" points="343.79,-92.95 354.28,-91.46 345.15,-86.08 343.79,-92.95" style=""/>
</g>
<!-- Repository&#45;&gt;Core -->
<g id="edge8" class="edge" data-name="Repository-&gt;Core">

<path fill="none" stroke="black" d="M644.73,-89.66C658.97,-82.7 675.38,-74.67 690.43,-67.31" style=""/>
<polygon fill="black" stroke="black" points="691.79,-70.54 699.24,-63.01 688.71,-64.26 691.79,-70.54" style=""/>
</g>
<!-- Storage -->
<g id="node6" class="node" pointer-events="visible" data-name="Storage">

<polygon fill="#e0e0e0" stroke="black" points="773.33,-126 704.88,-126 704.88,-90 773.33,-90 773.33,-126" style=""/>
<text text-anchor="middle" x="739.1" y="-111" font-family="Arial" font-size="10.00" style="">Storage</text>
<text text-anchor="middle" x="739.1" y="-99" font-family="Arial" font-size="10.00" style="">(JSON File)</text>
</g>
<!-- Repository&#45;&gt;Storage -->
<g id="edge9" class="edge" data-name="Repository-&gt;Storage">

<path fill="none" stroke="black" d="M647.21,-108C661.82,-108 678.45,-108 693.45,-108" style=""/>
<polygon fill="black" stroke="black" points="693.02,-111.5 703.02,-108 693.02,-104.5 693.02,-111.5" style=""/>
</g>
<!-- Client -->
<g id="node8" class="node" pointer-events="visible" data-name="Client">

<ellipse fill="none" stroke="black" cx="64.72" cy="-79" rx="64.95" ry="18" style=""/>
<text text-anchor="middle" x="64.72" y="-75.7" font-family="Arial" font-size="11.00" style="">Usuário (Browser)</text>
</g>
<!-- Index -->
<g id="node9" class="node" pointer-events="visible" data-name="Index">

<polygon fill="lightgray" stroke="black" points="225,-97 165.26,-97 165.26,-61 225,-61 225,-97" style=""/>
<text text-anchor="middle" x="195.13" y="-76" font-family="Arial" font-size="10.00" style="">index.php</text>
</g>
<!-- Client&#45;&gt;Index -->
<g id="edge1" class="edge" data-name="Client-&gt;Index">

<path fill="none" stroke="black" d="M129.93,-79C137.99,-79 146.06,-79 153.61,-79" style=""/>
<polygon fill="black" stroke="black" points="153.48,-82.5 163.48,-79 153.48,-75.5 153.48,-82.5" style=""/>
</g>
<!-- Index&#45;&gt;Controller -->
<g id="edge2" class="edge" data-name="Index-&gt;Controller">

<path fill="none" stroke="black" d="M225.42,-79C232.89,-79 241.06,-79 248.98,-79" style=""/>
<polygon fill="black" stroke="black" points="248.8,-82.5 258.8,-79 248.8,-75.5 248.8,-82.5" style=""/>
</g>
</g>
</svg>